<svg width="24" height="24" viewBox="0 0 24 24" fill="none" xmlns="http://www.w3.org/2000/svg" aria-hidden="true">
  <path fill="currentColor" d="M12.002 9C10.3446 9 9.00195 10.3431 9.00195 12C9.00195 13.6573 10.3451 15 12.002 15C13.6593 15 15.002 13.6569 15.002 12C15.002 10.3427 13.6589 9 12.002 9ZM12.002 7C14.7624 7 17.002 9.2371 17.002 12C17.002 14.7605 14.7649 17 12.002 17C9.24148 17 7.00195 14.7629 7.00195 12C7.00195 9.23953 9.23905 7 12.002 7ZM18.502 6.74915C18.502 7.43926 17.9412 7.99917 17.252 7.99917C16.5619 7.99917 16.002 7.4384 16.002 6.74915C16.002 6.0599 16.5627 5.5 17.252 5.5C17.9403 5.49913 18.502 6.0599 18.502 6.74915ZM12.002 4C9.52747 4 9.12415 4.00655 7.97324 4.0578C7.18912 4.09461 6.6635 4.20007 6.17513 4.38967C5.74113 4.55799 5.42806 4.75898 5.09449 5.09255C4.75964 5.4274 4.55901 5.73963 4.39137 6.17383C4.20133 6.66332 4.0959 7.18811 4.05975 7.97115C4.008 9.0752 4.00195 9.46105 4.00195 12C4.00195 14.4745 4.0085 14.8778 4.05974 16.0286C4.09657 16.8124 4.20217 17.3388 4.39131 17.826C4.56007 18.2606 4.76147 18.5744 5.09343 18.9064C5.4296 19.2421 5.74276 19.4434 6.17284 19.6094C6.66716 19.8005 7.19245 19.9061 7.97309 19.9422C9.07715 19.9939 9.463 20 12.002 20C14.4765 20 14.8798 19.9934 16.0306 19.9422C16.8127 19.9055 17.3395 19.7996 17.828 19.6106C18.2614 19.4423 18.5762 19.2402 18.9084 18.9085C19.2446 18.5718 19.4455 18.2594 19.6117 17.8283C19.8023 17.3358 19.9081 16.8098 19.9442 16.0289C19.9959 14.9248 20.002 14.5389 20.002 12C20.002 9.52552 19.9954 9.12221 19.9442 7.97137C19.9074 7.18906 19.8015 6.66149 19.6123 6.17318C19.4444 5.74038 19.2427 5.42635 18.9094 5.09255C18.574 4.75715 18.2626 4.55693 17.8281 4.38942C17.339 4.19954 16.8134 4.09396 16.0308 4.05781C14.9268 4.00605 14.5409 4 12.002 4ZM12.002 2C14.7186 2 15.0578 2.01 16.1245 2.06C17.1886 2.10917 17.9145 2.2775 18.552 2.525C19.2111 2.77917 19.7678 3.1225 20.3236 3.67833C20.8786 4.23417 21.222 4.7925 21.477 5.45C21.7236 6.08667 21.892 6.81333 21.942 7.8775C21.9895 8.94417 22.002 9.28333 22.002 12C22.002 14.7167 21.992 15.0558 21.942 16.1225C21.8928 17.1867 21.7236 17.9125 21.477 18.55C21.2228 19.2092 20.8786 19.7658 20.3236 20.3217C19.7678 20.8767 19.2086 21.22 18.552 21.475C17.9145 21.7217 17.1886 21.89 16.1245 21.94C15.0578 21.9875 14.7186 22 12.002 22C9.28528 22 8.94611 21.99 7.87945 21.94C6.81528 21.8908 6.09028 21.7217 5.45195 21.475C4.79361 21.2208 4.23611 20.8767 3.68028 20.3217C3.12445 19.7658 2.78195 19.2067 2.52695 18.55C2.27945 17.9125 2.11195 17.1867 2.06195 16.1225C2.01445 15.0558 2.00195 14.7167 2.00195 12C2.00195 9.28333 2.01195 8.94417 2.06195 7.8775C2.11111 6.8125 2.27945 6.0875 2.52695 5.45C2.78111 4.79167 3.12445 4.23417 3.68028 3.67833C4.23611 3.1225 4.79445 2.78 5.45195 2.525C6.08945 2.2775 6.81445 2.11 7.87945 2.06C8.94611 2.0125 9.28528 2 12.002 2Z"/>
</svg>
