<svg width="24" height="24" viewBox="0 0 24 24" fill="none" xmlns="http://www.w3.org/2000/svg" aria-hidden="true">
  <path fill="currentColor" d="M6.94146 4.99993C6.94109 5.81424 6.44706 6.54702 5.69232 6.85273C4.93758 7.15845 4.07285 6.97605 3.50588 6.39155C2.93891 5.80704 2.78293 4.93715 3.11148 4.19207C3.44004 3.44699 4.18752 2.9755 5.00146 2.99993C6.08253 3.03238 6.94195 3.91837 6.94146 4.99993ZM7.00146 8.47993H3.00146V20.9999H7.00146V8.47993ZM13.3215 8.47993H9.34146V20.9999H13.2815V14.4299C13.2815 10.7699 18.0515 10.4299 18.0515 14.4299V20.9999H22.0015V13.0699C22.0015 6.89993 14.9415 7.12993 13.2815 10.1599L13.3215 8.47993Z"/>
</svg>
