<svg preserveAspectRatio="none" width="100%" height="100%" overflow="visible" style="display: block;" viewBox="0 0 2824 867" fill="none" xmlns="http://www.w3.org/2000/svg">
<path id="Ellipse 12" d="M1412 1C1801.84 1 2154.74 49.5132 2410.14 127.925C2537.85 167.132 2641.12 213.799 2712.45 265.571C2783.8 317.36 2823 374.12 2823 433.5C2823 492.88 2783.8 549.64 2712.45 601.429C2641.12 653.201 2537.85 699.868 2410.14 739.075C2154.74 817.487 1801.84 866 1412 866C1022.16 866 669.261 817.487 413.858 739.075C286.151 699.868 182.876 653.201 111.55 601.429C40.2011 549.64 1 492.88 1 433.5C1 374.12 40.2011 317.36 111.55 265.571C182.876 213.799 286.151 167.132 413.858 127.925C669.261 49.5132 1022.16 1 1412 1Z" stroke="var(--stroke-0, #F7F4F0)" stroke-width="2"/>
</svg>
